<?xml version="1.0" encoding="UTF-8"?>
<svg width="46px" height="46px" viewBox="0 0 46 46" version="1.1" xmlns="http://www.w3.org/2000/svg" xmlns:xlink="http://www.w3.org/1999/xlink">
    <!-- Generator: Sketch 51.2 (57519) - http://www.bohemiancoding.com/sketch -->
    <title>skype_n</title>
    <desc>Created with Sketch.</desc>
    <defs></defs>
    <g id="Page-1" stroke="none" stroke-width="1" fill="none" fill-rule="evenodd">
        <g id="skype_n" fill="#000000" fill-rule="nonzero">
            <path d="M21.473,21.13 C18.093,20.292 19.943,17.341 22.682,17.385 C25.34,17.428 26.692,20.292 27.897,20.144 C29.105,19.995 30.133,18.15 28.235,16.499 C26.592,15.069 24.517,14.281 21.328,14.577 C18.826,14.809 16.45,16.45 16.16,19.651 C15.87,22.854 19.591,24.48 22.537,24.924 C24.601,25.234 27.417,26.253 25.726,28.223 C24.172,30.036 21.233,28.915 20.46,28.423 C19.687,27.928 18.816,26.154 17.366,26.253 C15.914,26.35 15.2,28.293 16.981,29.997 C18.576,31.523 20.315,32.361 24.033,32.164 C27.755,31.966 31.087,28.618 29.782,25.464 C28.479,22.311 24.857,21.968 21.473,21.13 Z" id="Shape"></path>
            <path d="M23,0.5 C10.573,0.5 0.5,10.573 0.5,23 C0.5,35.426 10.573,45.5 23,45.5 C35.427,45.5 45.5,35.426 45.5,23 C45.5,10.573 35.427,0.5 23,0.5 Z M28.756,35.729 C27.403,35.729 26.14,35.335 25.068,34.662 C24.378,34.789 23.668,34.86 22.939,34.86 C16.481,34.86 11.251,29.578 11.251,23.062 C11.251,22.431 11.3,21.809 11.396,21.203 C10.685,20.094 10.272,18.773 10.272,17.35 C10.272,13.441 13.393,10.272 17.247,10.272 C18.652,10.272 19.958,10.695 21.057,11.421 C21.669,11.318 22.299,11.265 22.94,11.265 C29.395,11.265 34.628,16.549 34.628,23.064 C34.628,23.605 34.589,24.139 34.519,24.665 C35.284,25.8 35.73,27.173 35.731,28.652 C35.731,32.562 32.609,35.729 28.756,35.729 Z" id="Shape"></path>
        </g>
    </g>
</svg>