<?xml version="1.0" encoding="UTF-8"?>
<svg width="187px" height="111px" viewBox="0 0 187 111" version="1.1" xmlns="http://www.w3.org/2000/svg" xmlns:xlink="http://www.w3.org/1999/xlink">
    <!-- Generator: Sketch 51.2 (57519) - http://www.bohemiancoding.com/sketch -->
    <title>stars1</title>
    <desc>Created with Sketch.</desc>
    <defs></defs>
    <g id="Page-1" stroke="none" stroke-width="1" fill="none" fill-rule="evenodd">
        <g id="stars1" fill="#FF0000" fill-rule="nonzero">
            <circle id="Oval" cx="70.704" cy="105.783" r="5.182"></circle>
            <circle id="Oval" cx="5.183" cy="78.269" r="5.183"></circle>
            <circle id="Oval" cx="121.8" cy="63.519" r="2.848"></circle>
            <circle id="Oval" cx="48.859" cy="49.678" r="2.848"></circle>
            <circle id="Oval" cx="33.16" cy="17.826" r="2.848"></circle>
            <circle id="Oval" cx="87.597" cy="7.948" r="2.848"></circle>
            <path d="M3.74683985,78.0726598 L123.035084,62.9849238 L70.7680975,106.215635 L3.74683985,78.0726598 Z M70.6399025,105.348365 L120.566916,64.0530762 L6.61916015,78.4653402 L70.6399025,105.348365 Z" id="Shape"></path>
            <path d="M32.9013879,17.4909676 L88.4730655,7.35939468 L70.9916155,106.309492 L4.67940352,78.4642537 L32.9013879,17.4909676 Z M33.4186121,18.1590324 L5.68659648,78.0737463 L70.4163845,105.254508 L87.5469345,8.29060532 L33.4186121,18.1590324 Z" id="Shape"></path>
            <polygon id="Shape" points="48.789085 50.0454249 48.928915 49.3085751 121.870915 63.1505751 121.731085 63.8874249"></polygon>
            <circle id="Oval" cx="181.678" cy="93.211" r="5.182"></circle>
            <circle id="Oval" cx="136.611" cy="5.184" r="5.183"></circle>
            <circle id="Oval" cx="176.274" cy="27.121" r="2.848"></circle>
            <circle id="Oval" cx="123.17" cy="79.005" r="2.848"></circle>
            <circle id="Oval" cx="88.066" cy="73.644" r="2.848"></circle>
            <circle id="Oval" cx="111.13" cy="23.354" r="2.848"></circle>
            <path d="M122.423854,79.2097394 L176.582719,26.294089 L182.094065,93.6969093 L122.423854,79.2097394 Z M123.916146,78.8002606 L181.261935,92.7230907 L175.965281,27.945911 L123.916146,78.8002606 Z" id="Shape"></path>
            <path d="M180.262126,91.2673286 L136.559095,5.90449793 L119.221285,30.3547886 L180.262126,91.2673286 Z M88.3708979,73.8609135 L87.7240064,73.4879604 L111.148312,22.2987845 L119.221285,30.3547886 L88.3708979,73.8609135 Z M118.242871,30.4379773 L111.381688,23.5912155 L90.0641856,70.1763898 L118.242871,30.4379773 Z M136.662905,4.46150207 L183.093874,95.1526714 L118.242871,30.4379773 L136.662905,4.46150207 Z" id="Shape"></path>
            <polygon id="Shape" points="123.431064 79.2722307 122.906936 78.7357693 176.011936 26.8517693 176.536064 27.3882307"></polygon>
        </g>
    </g>
</svg>