<?xml version="1.0" encoding="UTF-8"?>
<svg width="30px" height="31px" viewBox="0 0 30 31" version="1.1" xmlns="http://www.w3.org/2000/svg" xmlns:xlink="http://www.w3.org/1999/xlink">
    <!-- Generator: Sketch 51.2 (57519) - http://www.bohemiancoding.com/sketch -->
    <title>hamburger copy</title>
    <desc>Created with Sketch.</desc>
    <defs></defs>
    <g id="Page-1" stroke="none" stroke-width="1" fill="none" fill-rule="evenodd">
        <g id="hamburger-copy" transform="translate(-1.000000, -1.000000)" fill="#FFFFFF" fill-rule="nonzero">
            <path d="M36,16.5 C36,17.881 34.881,19 33.5,19 L-1.5,19 C-2.881,19 -4,17.881 -4,16.5 C-4,15.119 -2.881,14 -1.5,14 L33.5,14 C34.881,14 36,15.119 36,16.5 Z" id="Shape" transform="translate(16.000000, 16.500000) rotate(-45.000000) translate(-16.000000, -16.500000) "></path>
            <path d="M36,16.5 C36,17.881 34.881,19 33.5,19 L-1.5,19 C-2.881,19 -4,17.881 -4,16.5 C-4,15.119 -2.881,14 -1.5,14 L33.5,14 C34.881,14 36,15.119 36,16.5 Z" id="Shape" transform="translate(16.000000, 16.500000) rotate(-315.000000) translate(-16.000000, -16.500000) "></path>
        </g>
    </g>
</svg>